{
	"patcher" : 	{
		"fileversion" : 1,
		"appversion" : 		{
			"major" : 8,
			"minor" : 1,
			"revision" : 11,
			"architecture" : "x64",
			"modernui" : 1
		}
,
		"classnamespace" : "box",
		"rect" : [ 269.0, -972.0, 976.0, 767.0 ],
		"bglocked" : 0,
		"openinpresentation" : 0,
		"default_fontsize" : 12.0,
		"default_fontface" : 0,
		"default_fontname" : "Arial",
		"gridonopen" : 1,
		"gridsize" : [ 15.0, 15.0 ],
		"gridsnaponopen" : 1,
		"objectsnaponopen" : 1,
		"statusbarvisible" : 2,
		"toolbarvisible" : 1,
		"lefttoolbarpinned" : 0,
		"toptoolbarpinned" : 0,
		"righttoolbarpinned" : 0,
		"bottomtoolbarpinned" : 0,
		"toolbars_unpinned_last_save" : 0,
		"tallnewobj" : 0,
		"boxanimatetime" : 200,
		"enablehscroll" : 1,
		"enablevscroll" : 1,
		"devicewidth" : 0.0,
		"description" : "",
		"digest" : "",
		"tags" : "",
		"style" : "",
		"subpatcher_template" : "",
		"assistshowspatchername" : 0,
		"boxes" : [ 			{
				"box" : 				{
					"id" : "obj-32",
					"maxclass" : "newobj",
					"numinlets" : 1,
					"numoutlets" : 1,
					"outlettype" : [ "" ],
					"patching_rect" : [ 234.0, 471.166679461998001, 98.0, 22.0 ],
					"text" : "sprintf $2 %ld $1"
				}

			}
, 			{
				"box" : 				{
					"id" : "obj-27",
					"maxclass" : "message",
					"numinlets" : 2,
					"numoutlets" : 1,
					"outlettype" : [ "" ],
					"patching_rect" : [ 157.0, 538.166679461998001, 58.5, 22.0 ],
					"text" : "$2 0 $1"
				}

			}
, 			{
				"box" : 				{
					"id" : "obj-25",
					"maxclass" : "newobj",
					"numinlets" : 1,
					"numoutlets" : 1,
					"outlettype" : [ "" ],
					"patcher" : 					{
						"fileversion" : 1,
						"appversion" : 						{
							"major" : 8,
							"minor" : 1,
							"revision" : 11,
							"architecture" : "x64",
							"modernui" : 1
						}
,
						"classnamespace" : "box",
						"rect" : [ 0.0, 0.0, 640.0, 480.0 ],
						"bglocked" : 0,
						"openinpresentation" : 0,
						"default_fontsize" : 12.0,
						"default_fontface" : 0,
						"default_fontname" : "Arial",
						"gridonopen" : 1,
						"gridsize" : [ 15.0, 15.0 ],
						"gridsnaponopen" : 1,
						"objectsnaponopen" : 1,
						"statusbarvisible" : 2,
						"toolbarvisible" : 1,
						"lefttoolbarpinned" : 0,
						"toptoolbarpinned" : 0,
						"righttoolbarpinned" : 0,
						"bottomtoolbarpinned" : 0,
						"toolbars_unpinned_last_save" : 0,
						"tallnewobj" : 0,
						"boxanimatetime" : 200,
						"enablehscroll" : 1,
						"enablevscroll" : 1,
						"devicewidth" : 0.0,
						"description" : "",
						"digest" : "",
						"tags" : "",
						"style" : "",
						"subpatcher_template" : "",
						"assistshowspatchername" : 0,
						"boxes" : [ 							{
								"box" : 								{
									"id" : "obj-14",
									"maxclass" : "number",
									"numinlets" : 1,
									"numoutlets" : 2,
									"outlettype" : [ "", "bang" ],
									"parameter_enable" : 0,
									"patching_rect" : [ 81.0, 168.0, 50.0, 22.0 ]
								}

							}
, 							{
								"box" : 								{
									"id" : "obj-10",
									"maxclass" : "message",
									"numinlets" : 2,
									"numoutlets" : 1,
									"outlettype" : [ "" ],
									"patching_rect" : [ 50.0, 168.0, 29.5, 22.0 ],
									"text" : "15"
								}

							}
, 							{
								"box" : 								{
									"id" : "obj-6",
									"maxclass" : "newobj",
									"numinlets" : 2,
									"numoutlets" : 2,
									"outlettype" : [ "", "" ],
									"patching_rect" : [ 50.0, 136.0, 50.0, 22.0 ],
									"text" : "route -1"
								}

							}
, 							{
								"box" : 								{
									"id" : "obj-2",
									"maxclass" : "newobj",
									"numinlets" : 2,
									"numoutlets" : 1,
									"outlettype" : [ "int" ],
									"patching_rect" : [ 50.0, 100.0, 29.5, 22.0 ],
									"text" : "- 1"
								}

							}
, 							{
								"box" : 								{
									"comment" : "",
									"id" : "obj-22",
									"index" : 1,
									"maxclass" : "inlet",
									"numinlets" : 0,
									"numoutlets" : 1,
									"outlettype" : [ "" ],
									"patching_rect" : [ 50.0, 40.0, 30.0, 30.0 ]
								}

							}
, 							{
								"box" : 								{
									"comment" : "",
									"id" : "obj-23",
									"index" : 1,
									"maxclass" : "outlet",
									"numinlets" : 1,
									"numoutlets" : 0,
									"patching_rect" : [ 59.5, 250.0, 30.0, 30.0 ]
								}

							}
 ],
						"lines" : [ 							{
								"patchline" : 								{
									"destination" : [ "obj-23", 0 ],
									"source" : [ "obj-10", 0 ]
								}

							}
, 							{
								"patchline" : 								{
									"destination" : [ "obj-23", 0 ],
									"source" : [ "obj-14", 0 ]
								}

							}
, 							{
								"patchline" : 								{
									"destination" : [ "obj-6", 0 ],
									"source" : [ "obj-2", 0 ]
								}

							}
, 							{
								"patchline" : 								{
									"destination" : [ "obj-2", 0 ],
									"source" : [ "obj-22", 0 ]
								}

							}
, 							{
								"patchline" : 								{
									"destination" : [ "obj-10", 0 ],
									"source" : [ "obj-6", 0 ]
								}

							}
, 							{
								"patchline" : 								{
									"destination" : [ "obj-14", 0 ],
									"source" : [ "obj-6", 1 ]
								}

							}
 ]
					}
,
					"patching_rect" : [ 157.0, 395.166679461998001, 75.0, 22.0 ],
					"saved_object_attributes" : 					{
						"description" : "",
						"digest" : "",
						"globalpatchername" : "",
						"tags" : ""
					}
,
					"text" : "p one_less"
				}

			}
, 			{
				"box" : 				{
					"id" : "obj-21",
					"maxclass" : "newobj",
					"numinlets" : 2,
					"numoutlets" : 1,
					"outlettype" : [ "" ],
					"patching_rect" : [ 157.0, 502.166679461998001, 75.0, 22.0 ],
					"text" : "join"
				}

			}
, 			{
				"box" : 				{
					"id" : "obj-20",
					"maxclass" : "newobj",
					"numinlets" : 2,
					"numoutlets" : 1,
					"outlettype" : [ "int" ],
					"patching_rect" : [ 157.0, 466.166679461998001, 29.5, 22.0 ],
					"text" : "* 8"
				}

			}
, 			{
				"box" : 				{
					"id" : "obj-15",
					"maxclass" : "newobj",
					"numinlets" : 2,
					"numoutlets" : 2,
					"outlettype" : [ "", "" ],
					"patching_rect" : [ 157.0, 433.166679461998001, 56.0, 22.0 ],
					"text" : "zl.lookup"
				}

			}
, 			{
				"box" : 				{
					"fontname" : "Arial Bold",
					"fontsize" : 10.0,
					"id" : "obj-204",
					"maxclass" : "message",
					"numinlets" : 2,
					"numoutlets" : 1,
					"outlettype" : [ "" ],
					"patching_rect" : [ 50.5, 35.999994739097588, 120.0, 20.0 ],
					"text" : "interval $1, quantize $1"
				}

			}
, 			{
				"box" : 				{
					"id" : "obj-8",
					"maxclass" : "newobj",
					"numinlets" : 2,
					"numoutlets" : 1,
					"outlettype" : [ "bang" ],
					"patching_rect" : [ 50.5, 71.633334839645386, 244.0, 22.0 ],
					"text" : "metro @active 1 @interval 4n @quantize 4n"
				}

			}
, 			{
				"box" : 				{
					"comment" : "",
					"id" : "obj-4",
					"index" : 2,
					"maxclass" : "inlet",
					"numinlets" : 0,
					"numoutlets" : 1,
					"outlettype" : [ "" ],
					"patching_rect" : [ 50.5, -5.000005260902412, 30.0, 30.0 ]
				}

			}
, 			{
				"box" : 				{
					"comment" : "",
					"id" : "obj-16",
					"index" : 1,
					"maxclass" : "inlet",
					"numinlets" : 0,
					"numoutlets" : 1,
					"outlettype" : [ "int" ],
					"patching_rect" : [ 13.5, 30.999994739097588, 30.0, 30.0 ]
				}

			}
, 			{
				"box" : 				{
					"id" : "obj-36",
					"maxclass" : "button",
					"numinlets" : 1,
					"numoutlets" : 1,
					"outlettype" : [ "bang" ],
					"parameter_enable" : 0,
					"patching_rect" : [ 47.5, 593.166679461998001, 30.0, 30.0 ]
				}

			}
, 			{
				"box" : 				{
					"id" : "obj-24",
					"maxclass" : "toggle",
					"numinlets" : 1,
					"numoutlets" : 1,
					"outlettype" : [ "int" ],
					"parameter_enable" : 0,
					"patching_rect" : [ 13.5, 177.0, 24.0, 24.0 ]
				}

			}
, 			{
				"box" : 				{
					"id" : "obj-11",
					"maxclass" : "newobj",
					"numinlets" : 2,
					"numoutlets" : 1,
					"outlettype" : [ "" ],
					"patching_rect" : [ 13.5, 250.0, 32.0, 22.0 ],
					"text" : "gate"
				}

			}
, 			{
				"box" : 				{
					"id" : "obj-7",
					"maxclass" : "message",
					"numinlets" : 2,
					"numoutlets" : 1,
					"outlettype" : [ "" ],
					"patching_rect" : [ 47.5, 250.0, 29.5, 22.0 ],
					"text" : "0"
				}

			}
, 			{
				"box" : 				{
					"comment" : "",
					"id" : "obj-3",
					"index" : 1,
					"maxclass" : "outlet",
					"numinlets" : 1,
					"numoutlets" : 0,
					"patching_rect" : [ 10.5, 593.166679461998001, 30.0, 30.0 ]
				}

			}
, 			{
				"box" : 				{
					"id" : "obj-63",
					"maxclass" : "newobj",
					"numinlets" : 2,
					"numoutlets" : 2,
					"outlettype" : [ "bang", "" ],
					"patching_rect" : [ 10.5, 532.0, 34.0, 22.0 ],
					"text" : "sel 1"
				}

			}
, 			{
				"box" : 				{
					"id" : "obj-55",
					"maxclass" : "newobj",
					"numinlets" : 2,
					"numoutlets" : 2,
					"outlettype" : [ "", "" ],
					"patching_rect" : [ 10.5, 496.0, 56.0, 22.0 ],
					"text" : "zl.lookup"
				}

			}
, 			{
				"box" : 				{
					"comment" : "",
					"id" : "obj-5",
					"index" : 3,
					"maxclass" : "inlet",
					"numinlets" : 0,
					"numoutlets" : 1,
					"outlettype" : [ "" ],
					"patching_rect" : [ 136.0, 225.999994739097588, 30.0, 30.0 ]
				}

			}
, 			{
				"box" : 				{
					"id" : "obj-17",
					"maxclass" : "newobj",
					"numinlets" : 1,
					"numoutlets" : 1,
					"outlettype" : [ "bang" ],
					"patching_rect" : [ 234.0, 251.999994739097588, 58.0, 22.0 ],
					"text" : "loadbang"
				}

			}
, 			{
				"box" : 				{
					"id" : "obj-1",
					"maxclass" : "newobj",
					"numinlets" : 1,
					"numoutlets" : 2,
					"outlettype" : [ "", "" ],
					"patching_rect" : [ 234.0, 283.633334839645386, 72.0, 22.0 ],
					"text" : "patcherargs"
				}

			}
, 			{
				"box" : 				{
					"id" : "obj-125",
					"maxclass" : "message",
					"numinlets" : 2,
					"numoutlets" : 1,
					"outlettype" : [ "" ],
					"patching_rect" : [ 100.5, 338.166679461998001, 58.0, 22.0 ],
					"text" : "set $1 15"
				}

			}
, 			{
				"box" : 				{
					"id" : "obj-123",
					"maxclass" : "newobj",
					"numinlets" : 1,
					"numoutlets" : 1,
					"outlettype" : [ "" ],
					"patching_rect" : [ 86.0, 395.166679461998001, 49.0, 22.0 ],
					"text" : "append"
				}

			}
, 			{
				"box" : 				{
					"id" : "obj-87",
					"maxclass" : "number",
					"numinlets" : 1,
					"numoutlets" : 2,
					"outlettype" : [ "", "bang" ],
					"parameter_enable" : 0,
					"patching_rect" : [ 13.5, 333.133340100547798, 50.0, 22.0 ]
				}

			}
, 			{
				"box" : 				{
					"id" : "obj-85",
					"maxclass" : "newobj",
					"numinlets" : 5,
					"numoutlets" : 4,
					"outlettype" : [ "int", "", "", "int" ],
					"patching_rect" : [ 13.5, 292.133340100547798, 87.0, 22.0 ],
					"text" : "counter 15"
				}

			}
, 			{
				"box" : 				{
					"id" : "obj-84",
					"maxclass" : "button",
					"numinlets" : 1,
					"numoutlets" : 1,
					"outlettype" : [ "bang" ],
					"parameter_enable" : 0,
					"patching_rect" : [ 50.5, 109.133340100547798, 24.0, 24.0 ]
				}

			}
, 			{
				"box" : 				{
					"comment" : "",
					"id" : "obj-29",
					"index" : 2,
					"maxclass" : "outlet",
					"numinlets" : 1,
					"numoutlets" : 0,
					"patching_rect" : [ 157.0, 593.166679461998001, 30.0, 30.0 ]
				}

			}
 ],
		"lines" : [ 			{
				"patchline" : 				{
					"destination" : [ "obj-125", 0 ],
					"midpoints" : [ 243.5, 324.900007150821693, 110.0, 324.900007150821693 ],
					"order" : 1,
					"source" : [ "obj-1", 0 ]
				}

			}
, 			{
				"patchline" : 				{
					"destination" : [ "obj-32", 0 ],
					"order" : 0,
					"source" : [ "obj-1", 0 ]
				}

			}
, 			{
				"patchline" : 				{
					"destination" : [ "obj-85", 0 ],
					"source" : [ "obj-11", 0 ]
				}

			}
, 			{
				"patchline" : 				{
					"destination" : [ "obj-29", 0 ],
					"midpoints" : [ 95.5, 566.666679461998001, 166.5, 566.666679461998001 ],
					"source" : [ "obj-123", 0 ]
				}

			}
, 			{
				"patchline" : 				{
					"destination" : [ "obj-123", 0 ],
					"midpoints" : [ 110.0, 377.166679461998001, 95.5, 377.166679461998001 ],
					"source" : [ "obj-125", 0 ]
				}

			}
, 			{
				"patchline" : 				{
					"destination" : [ "obj-20", 0 ],
					"source" : [ "obj-15", 0 ]
				}

			}
, 			{
				"patchline" : 				{
					"destination" : [ "obj-24", 0 ],
					"source" : [ "obj-16", 0 ]
				}

			}
, 			{
				"patchline" : 				{
					"destination" : [ "obj-1", 0 ],
					"source" : [ "obj-17", 0 ]
				}

			}
, 			{
				"patchline" : 				{
					"destination" : [ "obj-21", 0 ],
					"source" : [ "obj-20", 0 ]
				}

			}
, 			{
				"patchline" : 				{
					"destination" : [ "obj-8", 0 ],
					"source" : [ "obj-204", 0 ]
				}

			}
, 			{
				"patchline" : 				{
					"destination" : [ "obj-27", 0 ],
					"source" : [ "obj-21", 0 ]
				}

			}
, 			{
				"patchline" : 				{
					"destination" : [ "obj-11", 0 ],
					"order" : 1,
					"source" : [ "obj-24", 0 ]
				}

			}
, 			{
				"patchline" : 				{
					"destination" : [ "obj-7", 0 ],
					"midpoints" : [ 23.0, 206.5, 57.0, 206.5 ],
					"order" : 0,
					"source" : [ "obj-24", 0 ]
				}

			}
, 			{
				"patchline" : 				{
					"destination" : [ "obj-15", 0 ],
					"order" : 1,
					"source" : [ "obj-25", 0 ]
				}

			}
, 			{
				"patchline" : 				{
					"destination" : [ "obj-21", 1 ],
					"midpoints" : [ 166.5, 424.166679461998001, 222.5, 424.166679461998001 ],
					"order" : 0,
					"source" : [ "obj-25", 0 ]
				}

			}
, 			{
				"patchline" : 				{
					"destination" : [ "obj-29", 0 ],
					"source" : [ "obj-27", 0 ]
				}

			}
, 			{
				"patchline" : 				{
					"destination" : [ "obj-27", 1 ],
					"midpoints" : [ 243.5, 515.166679461998001, 206.0, 515.166679461998001 ],
					"source" : [ "obj-32", 0 ]
				}

			}
, 			{
				"patchline" : 				{
					"destination" : [ "obj-204", 0 ],
					"source" : [ "obj-4", 0 ]
				}

			}
, 			{
				"patchline" : 				{
					"destination" : [ "obj-15", 1 ],
					"midpoints" : [ 145.5, 344.083337100547794, 203.5, 344.083337100547794 ],
					"order" : 0,
					"source" : [ "obj-5", 0 ]
				}

			}
, 			{
				"patchline" : 				{
					"destination" : [ "obj-55", 1 ],
					"midpoints" : [ 145.5, 322.999997369548794, 57.0, 322.999997369548794 ],
					"order" : 1,
					"source" : [ "obj-5", 0 ]
				}

			}
, 			{
				"patchline" : 				{
					"destination" : [ "obj-63", 0 ],
					"source" : [ "obj-55", 0 ]
				}

			}
, 			{
				"patchline" : 				{
					"destination" : [ "obj-3", 0 ],
					"order" : 1,
					"source" : [ "obj-63", 0 ]
				}

			}
, 			{
				"patchline" : 				{
					"destination" : [ "obj-36", 0 ],
					"order" : 0,
					"source" : [ "obj-63", 0 ]
				}

			}
, 			{
				"patchline" : 				{
					"destination" : [ "obj-85", 2 ],
					"source" : [ "obj-7", 0 ]
				}

			}
, 			{
				"patchline" : 				{
					"destination" : [ "obj-84", 0 ],
					"source" : [ "obj-8", 0 ]
				}

			}
, 			{
				"patchline" : 				{
					"destination" : [ "obj-11", 1 ],
					"midpoints" : [ 60.0, 212.066670050273899, 36.0, 212.066670050273899 ],
					"source" : [ "obj-84", 0 ]
				}

			}
, 			{
				"patchline" : 				{
					"destination" : [ "obj-87", 0 ],
					"source" : [ "obj-85", 0 ]
				}

			}
, 			{
				"patchline" : 				{
					"destination" : [ "obj-123", 0 ],
					"midpoints" : [ 23.0, 371.6500097812729, 95.5, 371.6500097812729 ],
					"order" : 1,
					"source" : [ "obj-87", 0 ]
				}

			}
, 			{
				"patchline" : 				{
					"destination" : [ "obj-25", 0 ],
					"order" : 0,
					"source" : [ "obj-87", 0 ]
				}

			}
, 			{
				"patchline" : 				{
					"destination" : [ "obj-55", 0 ],
					"midpoints" : [ 23.0, 425.066670050273899, 20.0, 425.066670050273899 ],
					"order" : 2,
					"source" : [ "obj-87", 0 ]
				}

			}
 ],
		"styles" : [ 			{
				"name" : "AudioStatus_Menu",
				"default" : 				{
					"bgfillcolor" : 					{
						"type" : "color",
						"color" : [ 0.294118, 0.313726, 0.337255, 1 ],
						"color1" : [ 0.454902, 0.462745, 0.482353, 0 ],
						"color2" : [ 0.290196, 0.309804, 0.301961, 1 ],
						"angle" : 270,
						"proportion" : 0.39,
						"autogradient" : 0
					}

				}
,
				"parentstyle" : "",
				"multi" : 0
			}
, 			{
				"name" : "Transparent",
				"default" : 				{
					"fontsize" : [ 12.0 ],
					"textjustification" : [ 1 ],
					"accentcolor" : [ 0.239216, 0.254902, 0.278431, 1.0 ],
					"fontname" : [ "Rubik" ],
					"elementcolor" : [ 0.0, 0.0, 0.0, 1.0 ],
					"color" : [ 0.904179, 0.895477, 0.842975, 0.74 ],
					"textcolor_inverse" : [ 0.0, 0.0, 0.0, 1.0 ],
					"bgcolor" : [ 0.290196, 0.309804, 0.301961, 0.35 ],
					"bgfillcolor" : 					{
						"type" : "gradient",
						"color" : [ 0.290196, 0.309804, 0.301961, 1.0 ],
						"color1" : [ 0.376471, 0.384314, 0.4, 0.35 ],
						"color2" : [ 0.290196, 0.309804, 0.301961, 0.67 ],
						"angle" : 270.0,
						"proportion" : 0.39,
						"autogradient" : 0
					}
,
					"textcolor" : [ 0.239216, 0.254902, 0.278431, 1.0 ]
				}
,
				"parentstyle" : "",
				"multi" : 0
			}
, 			{
				"name" : "ableton",
				"default" : 				{
					"fontname" : [ "Ableton Sans Medium Regular" ]
				}
,
				"parentstyle" : "",
				"multi" : 0
			}
, 			{
				"name" : "ksliderWhite",
				"default" : 				{
					"color" : [ 1.0, 1.0, 1.0, 1.0 ]
				}
,
				"parentstyle" : "",
				"multi" : 0
			}
, 			{
				"name" : "lato",
				"default" : 				{
					"fontsize" : [ 12.0 ],
					"fontname" : [ "Lato Regular" ]
				}
,
				"parentstyle" : "",
				"multi" : 0
			}
, 			{
				"name" : "newobjBlue-1",
				"default" : 				{
					"accentcolor" : [ 0.317647, 0.654902, 0.976471, 1.0 ]
				}
,
				"parentstyle" : "",
				"multi" : 0
			}
, 			{
				"name" : "newobjBrown-1",
				"default" : 				{
					"accentcolor" : [ 0.654902, 0.572549, 0.376471, 1.0 ]
				}
,
				"parentstyle" : "",
				"multi" : 0
			}
, 			{
				"name" : "newobjCyan-1",
				"default" : 				{
					"accentcolor" : [ 0.029546, 0.773327, 0.821113, 1.0 ]
				}
,
				"parentstyle" : "",
				"multi" : 0
			}
, 			{
				"name" : "newobjGreen-1",
				"default" : 				{
					"accentcolor" : [ 0.0, 0.533333, 0.168627, 1.0 ]
				}
,
				"parentstyle" : "",
				"multi" : 0
			}
, 			{
				"name" : "newobjYellow-1",
				"default" : 				{
					"fontsize" : [ 12.059008 ],
					"accentcolor" : [ 0.82517, 0.78181, 0.059545, 1.0 ]
				}
,
				"parentstyle" : "",
				"multi" : 0
			}
, 			{
				"name" : "numberGold-1",
				"default" : 				{
					"accentcolor" : [ 0.764706, 0.592157, 0.101961, 1.0 ]
				}
,
				"parentstyle" : "",
				"multi" : 0
			}
, 			{
				"name" : "rsliderGold",
				"default" : 				{
					"color" : [ 0.646639, 0.821777, 0.854593, 1.0 ],
					"bgcolor" : [ 0.764706, 0.592157, 0.101961, 1.0 ]
				}
,
				"parentstyle" : "",
				"multi" : 0
			}
 ]
	}

}
